<svg xmlns="http://www.w3.org/2000/svg" version="1.1" xmlns:xlink="http://www.w3.org/1999/xlink" xmlns:svgjs="http://svgjs.dev/svgjs" width="1440" height="560" preserveAspectRatio="none" viewBox="0 0 1440 560"><g mask="url(&quot;#SvgjsMask1045&quot;)" fill="none"><path d="M-127.09 52.43 a179.52 179.52 0 1 0 359.04 0 a179.52 179.52 0 1 0 -359.04 0z" fill="rgba(68, 75, 255, 0.3)" class="triangle-float1"></path><path d="M-98.71 24.05 a122.76 122.76 0 1 0 245.52 0 a122.76 122.76 0 1 0 -245.52 0z" fill="rgba(68, 75, 255, 0.3)" class="triangle-float1"></path><path d="M49.126,117.688C73.548,116.238,96.391,104.662,108.355,83.322C120.07,62.426,118.142,36.941,105.964,16.311C93.998,-3.96,72.665,-16.985,49.126,-17.015C25.535,-17.045,5.207,-3.406,-7.965,16.165C-23.249,38.875,-37.094,67.298,-23.677,91.158C-10.108,115.287,21.492,119.328,49.126,117.688" fill="rgba(68, 75, 255, 0.3)" class="triangle-float2"></path><path d="M1450.519,267.249C1498.193,266.8,1530.728,223.833,1552.856,181.603C1573.09,142.987,1578.939,98.639,1559.249,59.743C1537.439,16.659,1498.789,-19.165,1450.519,-20.553C1400.186,-22.001,1353.549,8.45,1330.388,53.161C1308.829,94.78,1321.846,142.689,1344.783,183.565C1368.358,225.578,1402.346,267.703,1450.519,267.249" fill="rgba(68, 75, 255, 0.3)" class="triangle-float3"></path><path d="M1466.157,306.208C1521.14,304.424,1558.833,254.986,1582.478,205.315C1602.591,163.062,1597.596,116.224,1576.469,74.468C1552.556,27.206,1519.057,-21.923,1466.157,-24.586C1409.953,-27.415,1361.788,12.936,1334.774,62.303C1308.875,109.633,1310.392,165.815,1335.979,213.315C1363.075,263.616,1409.052,308.061,1466.157,306.208" fill="rgba(68, 75, 255, 0.3)" class="triangle-float3"></path><path d="M1360.942,101C1384.862,101.126,1406.439,86.822,1417.922,65.839C1428.965,45.661,1427.814,20.866,1415.391,1.507C1403.874,-16.441,1382.26,-22.408,1360.942,-22.954C1338.34,-23.533,1313.547,-20.505,1301.436,-1.413C1288.662,18.725,1293.015,44.623,1304.996,65.243C1316.913,85.753,1337.221,100.875,1360.942,101" fill="rgba(68, 75, 255, 0.3)" class="triangle-float3"></path><path d="M101.42,653.632C144.114,654.072,193.494,651.877,214.389,614.643C235.05,577.826,208.723,536.216,187.931,499.473C166.657,461.88,144.597,416.27,101.42,415.012C57.068,413.72,27.17,455.325,5.716,494.165C-14.829,531.359,-29.45,575.921,-7.585,612.354C13.844,648.06,59.779,653.203,101.42,653.632" fill="rgba(68, 75, 255, 0.3)" class="triangle-float1"></path><path d="M49.748,567.49C75.546,566.982,100.204,556.633,114.243,534.984C129.669,511.196,137.372,479.858,122.042,456.008C107.48,433.353,76.612,432.736,49.748,434.645C26.881,436.27,6.064,446.115,-6.704,465.155C-21.338,486.977,-31.994,514.607,-19.303,537.614C-6.32,561.15,22.874,568.019,49.748,567.49" fill="rgba(68, 75, 255, 0.3)" class="triangle-float1"></path><path d="M101.971,676.264C146.264,676.941,184.911,649.006,207.242,610.749C229.775,572.145,235.808,524.312,213.161,485.775C190.774,447.679,146.158,431.628,101.971,431.612C57.751,431.596,12.457,447.231,-9.362,485.693C-30.95,523.748,-19.941,569.837,2.129,607.615C23.965,644.992,58.688,675.603,101.971,676.264" fill="rgba(68, 75, 255, 0.3)" class="triangle-float2"></path><path d="M1450.619,702.303C1496.602,700.786,1534.535,672.13,1559.446,633.45C1587.145,590.441,1609.865,537.723,1585.624,492.674C1560.512,446.004,1503.427,426.735,1450.619,431.204C1404.583,435.1,1373.353,472.661,1350.131,512.602C1326.741,552.832,1306.823,599.941,1328.606,641.063C1351.437,684.163,1401.872,703.911,1450.619,702.303" fill="rgba(68, 75, 255, 0.3)" class="triangle-float3"></path><path d="M1471.989,728.045C1521.866,728.18,1568.124,704.969,1595.748,663.441C1627.011,616.443,1645.877,556.752,1618.923,507.157C1591.051,455.874,1530.355,436.188,1471.989,435.729C1412.669,435.263,1349.185,452.616,1320.998,504.814C1293.754,555.266,1317.259,615.282,1349.383,662.776C1377.185,703.879,1422.366,727.911,1471.989,728.045" fill="rgba(68, 75, 255, 0.3)" class="triangle-float1"></path><path d="M1392.534,605.518C1423.061,603.648,1442.094,576.454,1457.954,550.304C1474.709,522.679,1493.78,491.32,1479.318,462.429C1463.842,431.513,1427.029,417.287,1392.534,419.613C1361.559,421.701,1339.469,446.049,1323.9,472.908C1308.269,499.873,1297.254,531.593,1311.58,559.273C1326.89,588.855,1359.287,607.555,1392.534,605.518" fill="rgba(68, 75, 255, 0.3)" class="triangle-float3"></path></g><defs><mask id="SvgjsMask1045"><rect width="1440" height="560" fill="#ffffff"></rect></mask><style>
                @keyframes float1 {
                    0%{transform: translate(0, 0)}
                    50%{transform: translate(-10px, 0)}
                    100%{transform: translate(0, 0)}
                }

                .triangle-float1 {
                    animation: float1 5s infinite;
                }

                @keyframes float2 {
                    0%{transform: translate(0, 0)}
                    50%{transform: translate(-5px, -5px)}
                    100%{transform: translate(0, 0)}
                }

                .triangle-float2 {
                    animation: float2 4s infinite;
                }

                @keyframes float3 {
                    0%{transform: translate(0, 0)}
                    50%{transform: translate(0, -10px)}
                    100%{transform: translate(0, 0)}
                }

                .triangle-float3 {
                    animation: float3 6s infinite;
                }
            </style></defs></svg>