<svg xmlns="http://www.w3.org/2000/svg" version="1.1" xmlns:xlink="http://www.w3.org/1999/xlink" xmlns:svgjs="http://svgjs.dev/svgjs" width="1440" height="560" preserveAspectRatio="none" viewBox="0 0 1440 560"><g mask="url(&quot;#SvgjsMask1018&quot;)" fill="none"><path d="M1022.8 248.65 a95.53 95.53 0 1 0 191.06 0 a95.53 95.53 0 1 0 -191.06 0z" fill="rgba(68, 75, 255, 0.2)" class="triangle-float2"></path><path d="M-41.32 16.59 a111.58 111.58 0 1 0 223.16 0 a111.58 111.58 0 1 0 -223.16 0z" fill="rgba(68, 75, 255, 0.2)" class="triangle-float1"></path><path d="M245.838,484.027C284.409,482.918,315.445,457.816,336.673,425.593C360.945,388.748,384.733,343.885,363.715,305.092C342.108,265.21,291.191,257.181,245.838,257.934C202.114,258.66,156.479,271.063,134.551,308.898C112.573,346.819,121.975,394.097,145.482,431.089C167.223,465.302,205.319,485.192,245.838,484.027" fill="rgba(68, 75, 255, 0.2)" class="triangle-float3"></path><path d="M1013.85 388.48 a166.26 166.26 0 1 0 332.52 0 a166.26 166.26 0 1 0 -332.52 0z" fill="rgba(68, 75, 255, 0.2)" class="triangle-float3"></path><path d="M667.23 510.68 a163.42 163.42 0 1 0 326.84 0 a163.42 163.42 0 1 0 -326.84 0z" fill="rgba(68, 75, 255, 0.2)" class="triangle-float3"></path><path d="M1271.53 10.23 a164.58 164.58 0 1 0 329.16 0 a164.58 164.58 0 1 0 -329.16 0z" fill="rgba(68, 75, 255, 0.2)" class="triangle-float1"></path><path d="M-87.53 393.53 a127.82 127.82 0 1 0 255.64 0 a127.82 127.82 0 1 0 -255.64 0z" fill="rgba(68, 75, 255, 0.2)" class="triangle-float2"></path><path d="M157.79 353.99 a123.13 123.13 0 1 0 246.26 0 a123.13 123.13 0 1 0 -246.26 0z" fill="rgba(68, 75, 255, 0.2)" class="triangle-float2"></path><path d="M304.85 218.72 a152.62 152.62 0 1 0 305.24 0 a152.62 152.62 0 1 0 -305.24 0z" fill="rgba(68, 75, 255, 0.2)" class="triangle-float2"></path><path d="M1395.009,687.499C1436.948,685.125,1467.244,651.393,1487.067,614.358C1505.576,579.778,1511.526,539.209,1492.836,504.727C1473.279,468.646,1436.04,443.645,1395.009,444.514C1355.256,445.356,1325.004,474.897,1304.105,508.724C1281.742,544.919,1263.649,587.989,1282.933,625.914C1303.641,666.639,1349.394,690.081,1395.009,687.499" fill="rgba(68, 75, 255, 0.2)" class="triangle-float2"></path></g><defs><mask id="SvgjsMask1018"><rect width="1440" height="560" fill="#ffffff"></rect></mask><style>
                @keyframes float1 {
                    0%{transform: translate(0, 0)}
                    50%{transform: translate(-10px, 0)}
                    100%{transform: translate(0, 0)}
                }

                .triangle-float1 {
                    animation: float1 5s infinite;
                }

                @keyframes float2 {
                    0%{transform: translate(0, 0)}
                    50%{transform: translate(-5px, -5px)}
                    100%{transform: translate(0, 0)}
                }

                .triangle-float2 {
                    animation: float2 4s infinite;
                }

                @keyframes float3 {
                    0%{transform: translate(0, 0)}
                    50%{transform: translate(0, -10px)}
                    100%{transform: translate(0, 0)}
                }

                .triangle-float3 {
                    animation: float3 6s infinite;
                }
            </style></defs></svg>