<svg xmlns="http://www.w3.org/2000/svg" version="1.1" xmlns:xlink="http://www.w3.org/1999/xlink" xmlns:svgjs="http://svgjs.dev/svgjs" width="1440" height="250" preserveAspectRatio="none" viewBox="0 0 1440 250"><g mask="url(&quot;#SvgjsMask1009&quot;)" fill="none"><path d="M8 250L258 0L613.5 0L363.5 250z" fill="url(&quot;#SvgjsLinearGradient1010&quot;)"></path><path d="M282.6 250L532.6 0L708.1 0L458.1 250z" fill="url(&quot;#SvgjsLinearGradient1010&quot;)"></path><path d="M518.2 250L768.2 0L1054.7 0L804.7 250z" fill="url(&quot;#SvgjsLinearGradient1010&quot;)"></path><path d="M726.8000000000001 250L976.8000000000001 0L1188.3000000000002 0L938.3000000000001 250z" fill="url(&quot;#SvgjsLinearGradient1010&quot;)"></path><path d="M1429 250L1179 0L1053 0L1303 250z" fill="url(&quot;#SvgjsLinearGradient1011&quot;)"></path><path d="M1174.4 250L924.4000000000001 0L621.4000000000001 0L871.4000000000001 250z" fill="url(&quot;#SvgjsLinearGradient1011&quot;)"></path><path d="M948.8 250L698.8 0L553.3 0L803.3 250z" fill="url(&quot;#SvgjsLinearGradient1011&quot;)"></path><path d="M720.1999999999999 250L470.19999999999993 0L147.69999999999993 0L397.69999999999993 250z" fill="url(&quot;#SvgjsLinearGradient1011&quot;)"></path><path d="M1225.5118891015125 250L1440 35.51188910151251L1440 250z" fill="url(&quot;#SvgjsLinearGradient1010&quot;)"></path><path d="M0 250L214.4881108984875 250L 0 35.51188910151251z" fill="url(&quot;#SvgjsLinearGradient1011&quot;)"></path></g><defs><mask id="SvgjsMask1009"><rect width="1440" height="250" fill="#ffffff"></rect></mask><linearGradient x1="0%" y1="100%" x2="100%" y2="0%" id="SvgjsLinearGradient1010"><stop stop-color="rgba(68, 75, 255, 0.1)" offset="0"></stop><stop stop-opacity="0" stop-color="rgba(68, 75, 255, 0.1)" offset="0.66"></stop></linearGradient><linearGradient x1="100%" y1="100%" x2="0%" y2="0%" id="SvgjsLinearGradient1011"><stop stop-color="rgba(68, 75, 255, 0.1)" offset="0"></stop><stop stop-opacity="0" stop-color="rgba(68, 75, 255, 0.1)" offset="0.66"></stop></linearGradient></defs></svg>