<svg xmlns="http://www.w3.org/2000/svg" version="1.1" xmlns:xlink="http://www.w3.org/1999/xlink" xmlns:svgjs="http://svgjs.dev/svgjs" width="1440" height="250" preserveAspectRatio="none" viewBox="0 0 1440 250"><g mask="url(&quot;#SvgjsMask1042&quot;)" fill="none"><path d="M44 250L294 0L582 0L332 250z" fill="url(&quot;#SvgjsLinearGradient1043&quot;)"></path><path d="M246.60000000000002 250L496.6 0L726.1 0L476.1 250z" fill="url(&quot;#SvgjsLinearGradient1043&quot;)"></path><path d="M501.20000000000005 250L751.2 0L1093.2 0L843.2 250z" fill="url(&quot;#SvgjsLinearGradient1043&quot;)"></path><path d="M737.8000000000001 250L987.8000000000001 0L1313.3000000000002 0L1063.3000000000002 250z" fill="url(&quot;#SvgjsLinearGradient1043&quot;)"></path><path d="M1430 250L1180 0L1058.5 0L1308.5 250z" fill="url(&quot;#SvgjsLinearGradient1044&quot;)"></path><path d="M1199.4 250L949.4000000000001 0L607.4000000000001 0L857.4000000000001 250z" fill="url(&quot;#SvgjsLinearGradient1044&quot;)"></path><path d="M930.8 250L680.8 0L461.79999999999995 0L711.8 250z" fill="url(&quot;#SvgjsLinearGradient1044&quot;)"></path><path d="M715.1999999999999 250L465.19999999999993 0L343.69999999999993 0L593.6999999999999 250z" fill="url(&quot;#SvgjsLinearGradient1044&quot;)"></path><path d="M1209.8201735068715 250L1440 19.820173506871356L1440 250z" fill="url(&quot;#SvgjsLinearGradient1043&quot;)"></path><path d="M0 250L230.17982649312864 250L 0 19.820173506871356z" fill="url(&quot;#SvgjsLinearGradient1044&quot;)"></path></g><defs><mask id="SvgjsMask1042"><rect width="1440" height="250" fill="#ffffff"></rect></mask><linearGradient x1="0%" y1="100%" x2="100%" y2="0%" id="SvgjsLinearGradient1043"><stop stop-color="rgba(68, 75, 255, 0.2)" offset="0"></stop><stop stop-opacity="0" stop-color="rgba(68, 75, 255, 0.2)" offset="0.66"></stop></linearGradient><linearGradient x1="100%" y1="100%" x2="0%" y2="0%" id="SvgjsLinearGradient1044"><stop stop-color="rgba(68, 75, 255, 0.2)" offset="0"></stop><stop stop-opacity="0" stop-color="rgba(68, 75, 255, 0.2)" offset="0.66"></stop></linearGradient></defs></svg>